# xmcd
#
# Track frame offsets: 
#        210
#        16009
#        31240
#        46983
#        61915
#        81719
#        103756
#        113696
#        127796
#        143803
#        159529
#        174088
#        189343
#
# Disc length: 2793 seconds
#
# Revision: 0
# Processed by: cddbd v1.5.2PL0 Copyright (c) Steve Scherf et al.
# Submitted via: ExactAudioCopy v1.0b1
#
DISCID=9b0ae70d
DTITLE=Various Artist - O Album Branco Do Fado [Disc 1]
DYEAR=1900
DGENRE=
TTITLE0=Camané - A Cantar É Que Te Deixas Levar
TTITLE1=Katia Guerreiro - Alvaro Duarte Simoes
TTITLE2=Ricardo Ribeiro - Muito Embora Q Querer Bem
TTITLE3=Ana Moura - Amor Em Tons De Sol Maior
TTITLE4=Joana Amendoeira - Amor Mais Que Perfeito
TTITLE5=Concalo Salgueiro - Grito
TTITLE6=Maria Ana Bobone - Da-Me O Braco, Anda Dai
TTITLE7=Patricia Rodrigues - Fado
TTITLE8=Jorge Fernando - Foste So Quem Deus Te Fez
TTITLE9=Mafalda Arnauth - Sem Limite
TTITLE10=Hélder Moutinho - Um Olhar Verde Esperanca
TTITLE11=Sofia De Portugal - Estranha Forma De Vida
TTITLE12=Anamar - Eu Nao Sabia
EXTD=
EXTT0=
EXTT1=
EXTT2=
EXTT3=
EXTT4=
EXTT5=
EXTT6=
EXTT7=
EXTT8=
EXTT9=
EXTT10=
EXTT11=
EXTT12=
PLAYORDER=
